<svg width="435" height="333" viewBox="0 0 435 333" fill="none" xmlns="http://www.w3.org/2000/svg">
<g id="Cart">
<path id="Vector" d="M343.855 276.819L275.53 228.493C298.573 206.046 319.532 174.082 339.576 137.942L407.9 186.268C380.599 217.274 357.471 247.704 343.855 276.819Z" fill="#FF7F50"/>
<path id="Vector_2" d="M343.873 225.368C355.011 225.368 364.039 216.339 364.039 205.202C364.039 194.065 355.011 185.036 343.873 185.036C332.736 185.036 323.708 194.065 323.708 205.202C323.708 216.339 332.736 225.368 343.873 225.368Z" fill="#251F47"/>
<path id="Vector_3" opacity="0.2" d="M12.6989 57.3706C12.6989 57.9396 12.4729 58.4852 12.0706 58.8875C11.6682 59.2898 11.1226 59.5159 10.5536 59.5159C9.98469 59.5159 9.43906 59.2898 9.03674 58.8875C8.63443 58.4852 8.40839 57.9396 8.40839 57.3706" fill="black"/>
<path id="Vector_4" d="M251.602 160.962H237.563C237.069 160.962 236.596 161.158 236.247 161.507C235.898 161.856 235.702 162.329 235.702 162.823V168.985C235.702 169.479 235.898 169.952 236.247 170.301C236.596 170.65 237.069 170.847 237.563 170.847H239.89V180.08H249.276V170.847H251.602C252.096 170.847 252.569 170.65 252.919 170.301C253.268 169.952 253.464 169.479 253.464 168.985V162.823C253.464 162.329 253.268 161.856 252.919 161.507C252.569 161.158 252.096 160.962 251.602 160.962V160.962Z" fill="#E6E6E6"/>
<path id="Vector_5" d="M265.664 217.359C257.066 204.777 252.671 189.797 253.107 174.565C253.115 174.214 253.001 173.87 252.785 173.593C252.568 173.316 252.262 173.123 251.919 173.046V170.383H237.092V173.009H236.888C236.688 173.009 236.49 173.049 236.305 173.125C236.121 173.202 235.953 173.314 235.812 173.456C235.671 173.597 235.559 173.765 235.483 173.95C235.407 174.135 235.368 174.332 235.368 174.532C235.368 174.569 235.37 174.606 235.372 174.643C236.54 190.926 232.596 205.529 223.539 218.451C223.018 219.193 222.751 220.085 222.78 220.992L224.401 271.143C224.44 272.261 224.91 273.322 225.712 274.103C226.514 274.883 227.586 275.324 228.706 275.333H262.243C263.375 275.324 264.459 274.873 265.263 274.077C266.068 273.28 266.529 272.201 266.55 271.069L267.175 222.376C267.193 220.589 266.666 218.839 265.664 217.359V217.359Z" fill="#FF7F50"/>
<path id="Vector_6" opacity="0.2" d="M248.676 162.97C248.676 164.035 248.253 165.056 247.5 165.809C246.746 166.562 245.725 166.985 244.66 166.985C243.595 166.985 242.574 166.562 241.82 165.809C241.067 165.056 240.644 164.035 240.644 162.97" fill="black"/>
<path id="Vector_7" d="M260.355 234.017H231.164C230.732 234.017 230.305 234.111 229.912 234.291C229.519 234.472 229.17 234.735 228.889 235.063C228.608 235.391 228.401 235.776 228.282 236.191C228.163 236.607 228.136 237.043 228.201 237.47L232.613 266.143H257.943L263.301 237.567C263.382 237.134 263.367 236.688 263.256 236.262C263.146 235.836 262.943 235.439 262.661 235.1C262.38 234.762 262.028 234.489 261.629 234.302C261.231 234.114 260.796 234.017 260.355 234.017V234.017Z" fill="#251F47"/>
<path id="Vector_8" d="M211.546 276.74H127.858C133.709 245.106 132.363 206.908 127.858 165.828H211.546C207.161 206.908 205.851 245.106 211.546 276.74Z" fill="#FF7F50"/>
<path id="Vector_9" d="M170.206 238.425C181.344 238.425 190.372 229.396 190.372 218.259C190.372 207.122 181.344 198.093 170.206 198.093C159.069 198.093 150.041 207.122 150.041 218.259C150.041 229.396 159.069 238.425 170.206 238.425Z" fill="#251F47"/>
<path id="Vector_10" d="M384.751 284.065H118.879L62.578 17.9138H14.529V5.9718H72.258L128.559 272.122H384.751V284.065Z" fill="#F5F5DC"/>
<path id="Vector_11" d="M157.841 332.688C171.975 332.688 183.432 321.23 183.432 307.096C183.432 292.963 171.975 281.505 157.841 281.505C143.707 281.505 132.25 292.963 132.25 307.096C132.25 321.23 143.707 332.688 157.841 332.688Z" fill="#F5F5DC"/>
<path id="Vector_12" d="M348.923 332.688C363.057 332.688 374.515 321.23 374.515 307.096C374.515 292.963 363.057 281.505 348.923 281.505C334.79 281.505 323.332 292.963 323.332 307.096C323.332 321.23 334.79 332.688 348.923 332.688Z" fill="#F5F5DC"/>
<path id="Vector_13" d="M379.904 278.441H121.225L75.5837 52.8889H422.735C424.507 52.889 426.257 53.2729 427.866 54.0141C429.475 54.7553 430.904 55.8361 432.055 57.1824C433.207 58.5286 434.053 60.1082 434.535 61.8126C435.018 63.517 435.126 65.3057 434.851 67.0557L392.018 268.081C391.576 270.973 390.109 273.61 387.886 275.512C385.662 277.413 382.829 278.453 379.904 278.441V278.441ZM124.034 275.029H379.904C382.015 275.037 384.06 274.287 385.664 272.915C387.269 271.542 388.327 269.639 388.646 267.551L431.479 66.5259C431.677 65.2629 431.6 63.9718 431.252 62.7415C430.904 61.5113 430.293 60.3711 429.462 59.3994C428.631 58.4276 427.6 57.6475 426.438 57.1126C425.277 56.5777 424.014 56.3009 422.735 56.301H79.7256L124.034 275.029Z" fill="#F5F5DC"/>
<path id="Vector_14" d="M171.513 277.719L141.623 54.8728L144.989 54.3168L174.879 277.163L171.513 277.719Z" fill="#F5F5DC"/>
<path id="Vector_15" d="M337.712 276.008L334.343 275.462L363.36 54.3218L366.729 54.8678L337.712 276.008Z" fill="#F5F5DC"/>
<path id="Vector_16" d="M258.527 54.595H255.115V277.441H258.527V54.595Z" fill="#F5F5DC"/>
<path id="Vector_17" d="M93.0137 114.308L93.0054 117.72L423.3 118.52L423.308 115.108L93.0137 114.308Z" fill="#F5F5DC"/>
<path id="Vector_18" d="M400 219.714L109.829 221.698L109.853 225.11L400.024 223.126L400 219.714Z" fill="#F5F5DC"/>
<path id="Vector_19" d="M19.6476 20.4731C30.0123 20.4731 38.4146 15.89 38.4146 10.2365C38.4146 4.58305 30.0123 0 19.6476 0C9.28285 0 0.880554 4.58305 0.880554 10.2365C0.880554 15.89 9.28285 20.4731 19.6476 20.4731Z" fill="#F5F5DC"/>
</g>
</svg>
